<?xml version="1.0" encoding="utf-8" standalone="yes"?>
<!DOCTYPE svg PUBLIC "-//W3C//DTD SVG 1.1//EN" "http://www.w3.org/Graphics/SVG/1.1/DTD/svg11.dtd">
<svg width="737" height="432" viewBox="0 0 737 432" style="fill:none;stroke:none;fill-rule:evenodd;clip-rule:evenodd;stroke-linecap:round;stroke-linejoin:round;stroke-miterlimit:1.5;" version="1.1" xmlns="http://www.w3.org/2000/svg" xmlns:xlink="http://www.w3.org/1999/xlink"><style id="fontImports">@import url("https://fonts.googleapis.com/css2?family=Shantell+Sans:wght@300..800&amp;display=block");</style><rect id="" x="0" y="0" width="736" height="432" style="fill: #2c2c2c;"></rect><g id="items" style="isolation: isolate"><g id="blend" style="mix-blend-mode:normal"><g id="g-root-1.cu_sy_18lc17kgp5q81-fill" data-item-order="999871856" data-item-id="1.cu_sy_18lc17kgp5q81" data-item-class="Part Indexed Indexed_1 Fill Stroke" data-item-index="1" data-renderer-id="0" transform="translate(4, 74)"><g id="1.cu_sy_18lc17kgp5q81-fill" stroke="none" fill="#293f64"><g><path d="M 0.9 99L 2.8 104.6L 22.7 101.2L 19.9 92.8ZM 22.7 101.2L 21.5 44.4L 1.6 48.9L 2.8 104.6ZM 1.6 48.9L 26.4 103.8L 46 98.6L 21.5 44.4ZM 46 98.6L 37.2 8.5L 17.6 13.8L 26.4 103.8ZM 17.6 13.8L 57.8 103L 76.8 96.3L 37.2 8.5ZM 76.8 96.3L 53.4 5.8L 34.5 12.6L 57.8 103ZM 34.5 12.6L 78.4 106.2L 97.4 99.6L 53.4 5.8ZM 97.4 99.6L 76.4 9.1L 57.3 15.7L 78.4 106.2ZM 57.3 15.7L 101 110.4L 120.4 104.6L 76.4 9.1ZM 120.4 104.6L 106.6 13L 87.2 18.6L 101 110.4ZM 87.2 18.6L 125.2 105.1L 144.6 99.4L 106.6 13ZM 144.6 99.4L 130.2 9.8L 110.8 15.1L 125.2 105.1ZM 110.8 15.1L 146.6 106.6L 166.2 101.9L 130.2 9.8ZM 166.2 101.9L 157 11.2L 137.4 15.8L 146.6 106.6ZM 137.4 15.8L 163.2 86.2L 182.9 81.9L 157 11.2ZM 182.9 81.9L 177.1 11.2L 157.3 14.3L 163.2 86.2ZM 157.3 14.3L 161.7 34.1L 183.5 39.5L 177.1 11.2ZM 183.5 39.5L 204.7 14.7L 180.9 11.7L 161.7 34.1ZM 180.9 11.7L 186.9 23.7L 210 25.4L 204.7 14.7ZM 210 25.4L 221.7 8.5L 198 7.7L 186.9 23.7ZM 198 7.7L 209.2 26.7L 226.4 16.5L 221.7 8.5Z" fill-rule="nonzero"></path></g></g></g><g id="g-root-1.cu_sy_18lc17kgp5q81-fill" data-item-order="999871856" data-item-id="1.cu_sy_18lc17kgp5q81" data-item-class="Part Indexed Indexed_1 Fill Stroke" data-item-index="1" data-renderer-id="0" transform="translate(4, 74)"><g id="1.cu_sy_18lc17kgp5q81-fill" stroke="none" fill="#293f64"><g><path d="M 0.9 99L 2.8 104.6L 22.7 101.2L 19.9 92.8ZM 22.7 101.2L 21.5 44.4L 1.6 48.9L 2.8 104.6ZM 1.6 48.9L 26.4 103.8L 46 98.6L 21.5 44.4ZM 46 98.6L 37.2 8.5L 17.6 13.8L 26.4 103.8ZM 17.6 13.8L 57.8 103L 76.8 96.3L 37.2 8.5ZM 76.8 96.3L 53.4 5.8L 34.5 12.6L 57.8 103ZM 34.5 12.6L 78.4 106.2L 97.4 99.6L 53.4 5.8ZM 97.4 99.6L 76.4 9.1L 57.3 15.7L 78.4 106.2ZM 57.3 15.7L 101 110.4L 120.4 104.6L 76.4 9.1ZM 120.4 104.6L 106.6 13L 87.2 18.6L 101 110.4ZM 87.2 18.6L 125.2 105.1L 144.6 99.4L 106.6 13ZM 144.6 99.4L 130.2 9.8L 110.8 15.1L 125.2 105.1ZM 110.8 15.1L 146.6 106.6L 166.2 101.9L 130.2 9.8ZM 166.2 101.9L 157 11.2L 137.4 15.8L 146.6 106.6ZM 137.4 15.8L 163.2 86.2L 182.9 81.9L 157 11.2ZM 182.9 81.9L 177.1 11.2L 157.3 14.3L 163.2 86.2ZM 157.3 14.3L 161.7 34.1L 183.5 39.5L 177.1 11.2ZM 183.5 39.5L 204.7 14.7L 180.9 11.7L 161.7 34.1ZM 180.9 11.7L 186.9 23.7L 210 25.4L 204.7 14.7ZM 210 25.4L 221.7 8.5L 198 7.7L 186.9 23.7ZM 198 7.7L 209.2 26.7L 226.4 16.5L 221.7 8.5Z" fill-rule="nonzero"></path></g></g></g><g id="g-root-2.cu_sy_meuzoggp5pfu-fill" data-item-order="999871858" data-item-id="2.cu_sy_meuzoggp5pfu" data-item-class="Part Indexed Fill Stroke" data-item-index="2" data-renderer-id="0" transform="translate(172.00009155273438, 74)"><g id="2.cu_sy_meuzoggp5pfu-fill" stroke="none" fill="#2b503e"><g><path d="M 1.799908 127.2L 4.299908 129.8L 24.599908 122L 16.099908 113.3ZM 24.599908 122L 26.799908 64.5L 6.699908 67.5L 4.299908 129.8ZM 6.699908 67.5L 27.599908 126.3L 46.899908 121.1L 26.799908 64.5ZM 46.899908 121.1L 30.599908 34.4L 11.499908 40.8L 27.599908 126.3ZM 11.499908 40.8L 57.599908 133.7L 76.499908 126.8L 30.599908 34.4ZM 76.499908 126.8L 48.999908 13.7L 30.099908 20.5L 57.599908 133.7ZM 30.099908 20.5L 39.499908 34.5L 55.899908 43.7L 63.999908 45.2L 103.899908 134.7L 123.099908 128.6L 83.099908 39.2L 59.699908 25.5L 54.999908 26L 48.999908 13.7ZM 123.099908 128.6L 103.499908 31.7L 84.299908 38L 103.899908 134.7ZM 84.299908 38L 128.599908 134.2L 147.799908 127.9L 103.499908 31.7ZM 147.799908 127.9L 128.199908 31L 108.999908 36.7L 128.599908 134.2ZM 108.999908 36.7L 146.899908 134L 166.599908 129.3L 128.199908 31ZM 166.599908 129.3L 157.699908 34.3L 137.999908 38.7L 146.899908 134ZM 137.999908 38.7L 163.499908 108L 183.099908 103.4L 157.699908 34.3ZM 183.099908 103.4L 175.899908 34.9L 156.299908 39.7L 163.499908 108ZM 156.299908 39.7L 162.999908 56.7L 184.899908 57.8L 175.899908 34.9ZM 184.899908 57.8L 198.399908 31.4L 174.999908 33.3L 162.999908 56.7ZM 174.999908 33.3L 185.499908 47.6L 210.799908 48.2L 198.399908 31.4ZM 210.799908 48.2L 224.399908 31.6L 200.799908 28.9L 185.499908 47.6ZM 200.799908 28.9L 209.899908 47.7L 227.899908 39L 224.399908 31.6ZM 12.399908 32.1L 13.999908 30.9L 29.699908 46.1L 38.799908 48.8L 80.499908 134.1L 98.499908 125.3L 58.099908 42.6L 37.899908 28.6L 31.999908 28L 32.199908 29.4Z" fill-rule="nonzero"></path></g></g></g><g id="g-root-2.cu_sy_meuzoggp5pfu-fill" data-item-order="999871858" data-item-id="2.cu_sy_meuzoggp5pfu" data-item-class="Part Indexed Fill Stroke" data-item-index="2" data-renderer-id="0" transform="translate(172.00009155273438, 74)"><g id="2.cu_sy_meuzoggp5pfu-fill" stroke="none" fill="#2b503e"><g><path d="M 1.799908 127.2L 4.299908 129.8L 24.599908 122L 16.099908 113.3ZM 24.599908 122L 26.799908 64.5L 6.699908 67.5L 4.299908 129.8ZM 6.699908 67.5L 27.599908 126.3L 46.899908 121.1L 26.799908 64.5ZM 46.899908 121.1L 30.599908 34.4L 11.499908 40.8L 27.599908 126.3ZM 11.499908 40.8L 57.599908 133.7L 76.499908 126.8L 30.599908 34.4ZM 76.499908 126.8L 48.999908 13.7L 30.099908 20.5L 57.599908 133.7ZM 30.099908 20.5L 39.499908 34.5L 55.899908 43.7L 63.999908 45.2L 103.899908 134.7L 123.099908 128.6L 83.099908 39.2L 59.699908 25.5L 54.999908 26L 48.999908 13.7ZM 123.099908 128.6L 103.499908 31.7L 84.299908 38L 103.899908 134.7ZM 84.299908 38L 128.599908 134.2L 147.799908 127.9L 103.499908 31.7ZM 147.799908 127.9L 128.199908 31L 108.999908 36.7L 128.599908 134.2ZM 108.999908 36.7L 146.899908 134L 166.599908 129.3L 128.199908 31ZM 166.599908 129.3L 157.699908 34.3L 137.999908 38.7L 146.899908 134ZM 137.999908 38.7L 163.499908 108L 183.099908 103.4L 157.699908 34.3ZM 183.099908 103.4L 175.899908 34.9L 156.299908 39.7L 163.499908 108ZM 156.299908 39.7L 162.999908 56.7L 184.899908 57.8L 175.899908 34.9ZM 184.899908 57.8L 198.399908 31.4L 174.999908 33.3L 162.999908 56.7ZM 174.999908 33.3L 185.499908 47.6L 210.799908 48.2L 198.399908 31.4ZM 210.799908 48.2L 224.399908 31.6L 200.799908 28.9L 185.499908 47.6ZM 200.799908 28.9L 209.899908 47.7L 227.899908 39L 224.399908 31.6ZM 12.399908 32.1L 13.999908 30.9L 29.699908 46.1L 38.799908 48.8L 80.499908 134.1L 98.499908 125.3L 58.099908 42.6L 37.899908 28.6L 31.999908 28L 32.199908 29.4Z" fill-rule="nonzero"></path></g></g></g><g id="g-root-3.cu_sy_1utoi00gp5p8r-fill" data-item-order="999871860" data-item-id="3.cu_sy_1utoi00gp5p8r" data-item-class="Part Indexed Fill Stroke" data-item-index="3" data-renderer-id="0" transform="translate(340.0001220703125, 98)"><g id="3.cu_sy_1utoi00gp5p8r-fill" stroke="none" fill="#404b29"><g><path d="M 7.399908 128.8L 10.599908 133.8L 30.199908 127.3L 24.199908 118ZM 30.199908 127.3L 25.699908 65.1L 5.999908 70.4L 10.599908 133.8ZM 5.999908 70.4L 34.799908 130L 53.799908 123.4L 25.699908 65.1ZM 53.799908 123.4L 33.199908 33.4L 14.099908 39.3L 34.799908 130ZM 14.099908 39.3L 49.999908 128.9L 69.399908 123.5L 33.199908 33.4ZM 69.399908 123.5L 51.199908 16.4L 31.099908 18L 49.999908 128.9ZM 31.099908 18L 32.699908 25.4L 46.499908 43L 62.999908 48.6L 102.999908 130.5L 122.299908 124.4L 82.299908 42.6L 64.599908 28.5L 50.999908 25.3L 51.199908 16.4ZM 122.299908 124.4L 106.599908 29.1L 87.299908 34.6L 102.999908 130.5ZM 87.299908 34.6L 126.299908 129.1L 145.699908 123.6L 106.599908 29.1ZM 145.699908 123.6L 130.499908 31.5L 111.099908 37L 126.299908 129.1ZM 111.099908 37L 149.099908 129.4L 168.299908 123.5L 130.499908 31.5ZM 168.299908 123.5L 149.699908 35.7L 130.599908 42.1L 149.099908 129.4ZM 130.599908 42.1L 163.899908 111.9L 183.299908 106.2L 149.699908 35.7ZM 183.299908 106.2L 173.799908 30L 154.299908 35.9L 163.899908 111.9ZM 154.299908 35.9L 166.799908 60.8L 189.199908 61L 173.799908 30ZM 189.199908 61L 202.099908 36.6L 179.599908 36.5L 166.799908 60.8ZM 179.599908 36.5L 181.799908 40.8L 207.399908 47L 202.099908 36.6ZM 207.399908 47L 211.899908 43.8L 215.999908 46.9L 228.199908 31.1L 225.799908 29.3L 198.499908 28.8L 181.799908 40.8ZM 36.199908 41.6L 77.899908 134L 96.099908 125.8L 54.399908 33.4Z" fill-rule="nonzero"></path></g></g></g><g id="g-root-3.cu_sy_1utoi00gp5p8r-fill" data-item-order="999871860" data-item-id="3.cu_sy_1utoi00gp5p8r" data-item-class="Part Indexed Fill Stroke" data-item-index="3" data-renderer-id="0" transform="translate(340.0001220703125, 98)"><g id="3.cu_sy_1utoi00gp5p8r-fill" stroke="none" fill="#404b29"><g><path d="M 7.399908 128.8L 10.599908 133.8L 30.199908 127.3L 24.199908 118ZM 30.199908 127.3L 25.699908 65.1L 5.999908 70.4L 10.599908 133.8ZM 5.999908 70.4L 34.799908 130L 53.799908 123.4L 25.699908 65.1ZM 53.799908 123.4L 33.199908 33.4L 14.099908 39.3L 34.799908 130ZM 14.099908 39.3L 49.999908 128.9L 69.399908 123.5L 33.199908 33.4ZM 69.399908 123.5L 51.199908 16.4L 31.099908 18L 49.999908 128.9ZM 31.099908 18L 32.699908 25.4L 46.499908 43L 62.999908 48.6L 102.999908 130.5L 122.299908 124.4L 82.299908 42.6L 64.599908 28.5L 50.999908 25.3L 51.199908 16.4ZM 122.299908 124.4L 106.599908 29.1L 87.299908 34.6L 102.999908 130.5ZM 87.299908 34.6L 126.299908 129.1L 145.699908 123.6L 106.599908 29.1ZM 145.699908 123.6L 130.499908 31.5L 111.099908 37L 126.299908 129.1ZM 111.099908 37L 149.099908 129.4L 168.299908 123.5L 130.499908 31.5ZM 168.299908 123.5L 149.699908 35.7L 130.599908 42.1L 149.099908 129.4ZM 130.599908 42.1L 163.899908 111.9L 183.299908 106.2L 149.699908 35.7ZM 183.299908 106.2L 173.799908 30L 154.299908 35.9L 163.899908 111.9ZM 154.299908 35.9L 166.799908 60.8L 189.199908 61L 173.799908 30ZM 189.199908 61L 202.099908 36.6L 179.599908 36.5L 166.799908 60.8ZM 179.599908 36.5L 181.799908 40.8L 207.399908 47L 202.099908 36.6ZM 207.399908 47L 211.899908 43.8L 215.999908 46.9L 228.199908 31.1L 225.799908 29.3L 198.499908 28.8L 181.799908 40.8ZM 36.199908 41.6L 77.899908 134L 96.099908 125.8L 54.399908 33.4Z" fill-rule="nonzero"></path></g></g></g><g id="g-root-4.cu_sy_1d30ylcgp5og4-fill" data-item-order="999871862" data-item-id="4.cu_sy_1d30ylcgp5og4" data-item-class="Part Indexed Fill Stroke" data-item-index="4" data-renderer-id="0" transform="translate(508.0001220703125, 122)"><g id="4.cu_sy_1d30ylcgp5og4-fill" stroke="none" fill="#224754"><g><path d="M 3.799878 29L 1.399878 39.5L 18.499878 54.4L 23.299878 33.4ZM 18.499878 54.4L 48.999878 43L 32.299878 27.9L 1.399878 39.5ZM 32.299878 27.9L 4.899878 129.5L 23.799878 136.4L 48.999878 43ZM 23.799878 136.4L 70.499878 36.2L 51.299878 30L 4.899878 129.5ZM 51.299878 30L 33.399878 124.6L 52.599878 130.3L 70.499878 36.2ZM 52.599878 130.3L 89.599878 39.9L 70.199878 34.5L 33.399878 124.6ZM 70.199878 34.5L 54.799878 127.2L 74.199878 132.4L 89.599878 39.9ZM 74.199878 132.4L 109.999878 37.2L 90.699878 31.9L 54.799878 127.2ZM 90.699878 31.9L 73.399878 129L 92.599878 135.2L 109.999878 37.2ZM 92.599878 135.2L 139.099878 38.8L 120.199878 31.9L 73.399878 129ZM 120.199878 31.9L 96.399878 126.5L 115.499878 132.7L 139.099878 38.8ZM 115.499878 132.7L 154.499878 35.4L 135.399878 29.5L 96.399878 126.5ZM 135.399878 29.5L 114.099878 126L 133.099878 132.6L 154.499878 35.4ZM 133.099878 132.6L 182.899878 31.4L 163.899878 24.8L 114.099878 126ZM 163.899878 24.8L 142.299878 125.4L 161.399878 132L 182.899878 31.4ZM 161.399878 132L 198.399878 56.3L 179.299878 50L 142.299878 125.4ZM 179.299878 50L 166.499878 117.7L 185.199878 126.4L 198.399878 56.3ZM 185.199878 126.4L 219.799878 84.5L 202.899878 73.5L 166.499878 117.7ZM 202.899878 73.5L 197.899878 83.6L 215.799878 92.5L 219.799878 84.5ZM 35.399878 15.5L 30.399878 29.1L 49.199878 36L 54.199878 22.4Z" fill-rule="nonzero"></path></g></g></g><g id="g-root-4.cu_sy_1d30ylcgp5og4-fill" data-item-order="999871862" data-item-id="4.cu_sy_1d30ylcgp5og4" data-item-class="Part Indexed Fill Stroke" data-item-index="4" data-renderer-id="0" transform="translate(508.0001220703125, 122)"><g id="4.cu_sy_1d30ylcgp5og4-fill" stroke="none" fill="#224754"><g><path d="M 3.799878 29L 1.399878 39.5L 18.499878 54.4L 23.299878 33.4ZM 18.499878 54.4L 48.999878 43L 32.299878 27.9L 1.399878 39.5ZM 32.299878 27.9L 4.899878 129.5L 23.799878 136.4L 48.999878 43ZM 23.799878 136.4L 70.499878 36.2L 51.299878 30L 4.899878 129.5ZM 51.299878 30L 33.399878 124.6L 52.599878 130.3L 70.499878 36.2ZM 52.599878 130.3L 89.599878 39.9L 70.199878 34.5L 33.399878 124.6ZM 70.199878 34.5L 54.799878 127.2L 74.199878 132.4L 89.599878 39.9ZM 74.199878 132.4L 109.999878 37.2L 90.699878 31.9L 54.799878 127.2ZM 90.699878 31.9L 73.399878 129L 92.599878 135.2L 109.999878 37.2ZM 92.599878 135.2L 139.099878 38.8L 120.199878 31.9L 73.399878 129ZM 120.199878 31.9L 96.399878 126.5L 115.499878 132.7L 139.099878 38.8ZM 115.499878 132.7L 154.499878 35.4L 135.399878 29.5L 96.399878 126.5ZM 135.399878 29.5L 114.099878 126L 133.099878 132.6L 154.499878 35.4ZM 133.099878 132.6L 182.899878 31.4L 163.899878 24.8L 114.099878 126ZM 163.899878 24.8L 142.299878 125.4L 161.399878 132L 182.899878 31.4ZM 161.399878 132L 198.399878 56.3L 179.299878 50L 142.299878 125.4ZM 179.299878 50L 166.499878 117.7L 185.199878 126.4L 198.399878 56.3ZM 185.199878 126.4L 219.799878 84.5L 202.899878 73.5L 166.499878 117.7ZM 202.899878 73.5L 197.899878 83.6L 215.799878 92.5L 219.799878 84.5ZM 35.399878 15.5L 30.399878 29.1L 49.199878 36L 54.199878 22.4Z" fill-rule="nonzero"></path></g></g></g><g id="g-root-tx_introduc_qwjx28gp4a9s-fill" data-item-order="1000000000" data-item-id="tx_introduc_qwjx28gp4a9s" data-item-class="Label Stroke Title ColorFillGray ColorStrokeGray" data-item-index="none" data-renderer-id="0" transform="translate(148, 2)"><g id="tx_introduc_qwjx28gp4a9s-fill" stroke="none" fill="#FFFFFF"><g><text style="font: bold 25px &quot;Shantell Sans&quot;, cursive; white-space: pre;" font-weight="bold" font-size="25" font-family="'Shantell Sans', cursive"><tspan x="14.25" y="45" dominant-baseline="ideographic">Introducción al Web Scraping</tspan></text></g></g></g><g id="g-root-tx_introduc_qwjx28gp4a9s-fill" data-item-order="1000000000" data-item-id="tx_introduc_qwjx28gp4a9s" data-item-class="Label Stroke Title ColorFillGray ColorStrokeGray" data-item-index="none" data-renderer-id="0" transform="translate(148, 2)"><g id="tx_introduc_qwjx28gp4a9s-fill" stroke="none" fill="#FFFFFF"><g><text style="font: bold 25px &quot;Shantell Sans&quot;, cursive; white-space: pre;" font-weight="bold" font-size="25" font-family="'Shantell Sans', cursive"><tspan x="14.25" y="45" dominant-baseline="ideographic">Introducción al Web Scraping</tspan></text></g></g></g><g id="g-root-tx_identifi_zjga3kgp5pft-fill" data-item-order="1000000000" data-item-id="tx_identifi_zjga3kgp5pft" data-item-class="Label Stroke Indexed Indexed_1 InsideFill InsideColorFill" data-item-index="1" data-renderer-id="0" transform="translate(16, 86)"><g id="tx_identifi_zjga3kgp5pft-fill" stroke="none" fill="#FFFFFF"><g><text style="font: 20px &quot;Shantell Sans&quot;, cursive; white-space: pre;" font-weight="20px" font-size="&quot;Shantell" font-family="Sans', cursive"><tspan x="14.9" y="35" dominant-baseline="ideographic">Identificar la </tspan><tspan x="14.48" y="59" dominant-baseline="ideographic">Necesidad de </tspan><tspan x="52.1" y="83" dominant-baseline="ideographic">Datos</tspan></text></g></g></g><g id="g-root-tx_entender_14157hcgp5nnv-fill" data-item-order="1000000000" data-item-id="tx_entender_14157hcgp5nnv" data-item-class="Label Stroke Indexed InsideFill InsideColorFill" data-item-index="2" data-renderer-id="0" transform="translate(184, 122)"><g id="tx_entender_14157hcgp5nnv-fill" stroke="none" fill="#FFFFFF"><g><text style="font: 20px &quot;Shantell Sans&quot;, cursive; white-space: pre;" font-weight="20px" font-size="&quot;Shantell" font-family="Sans', cursive"><tspan x="25.75" y="35" dominant-baseline="ideographic">Entender el </tspan><tspan x="17.02" y="59" dominant-baseline="ideographic">Web Scraping</tspan></text></g></g></g><g id="g-root-tx_explorar_1hduo0wgp5o91-fill" data-item-order="1000000000" data-item-id="tx_explorar_1hduo0wgp5o91" data-item-class="Label Stroke Indexed InsideFill InsideColorFill" data-item-index="3" data-renderer-id="0" transform="translate(352, 134)"><g id="tx_explorar_1hduo0wgp5o91-fill" stroke="none" fill="#FFFFFF"><g><text style="font: 20px &quot;Shantell Sans&quot;, cursive; white-space: pre;" font-weight="20px" font-size="&quot;Shantell" font-family="Sans', cursive"><tspan x="38.95" y="35" dominant-baseline="ideographic">Explorar </tspan><tspan x="14.26" y="59" dominant-baseline="ideographic">Herramientas </tspan><tspan x="36.98" y="83" dominant-baseline="ideographic">Comunes</tspan></text></g></g></g><g id="g-root-tx_explorar_1hduo0wgp5o91-fill" data-item-order="1000000000" data-item-id="tx_explorar_1hduo0wgp5o91" data-item-class="Label Stroke Indexed InsideFill InsideColorFill" data-item-index="3" data-renderer-id="0" transform="translate(352, 134)"><g id="tx_explorar_1hduo0wgp5o91-fill" stroke="none" fill="#FFFFFF"><g><text style="font: 20px &quot;Shantell Sans&quot;, cursive; white-space: pre;" font-weight="20px" font-size="&quot;Shantell" font-family="Sans', cursive"><tspan x="38.95" y="35" dominant-baseline="ideographic">Explorar </tspan><tspan x="14.26" y="59" dominant-baseline="ideographic">Herramientas </tspan><tspan x="36.98" y="83" dominant-baseline="ideographic">Comunes</tspan></text></g></g></g><g id="g-root-tx_implemen_zog2sggp5oun-fill" data-item-order="1000000000" data-item-id="tx_implemen_zog2sggp5oun" data-item-class="Label Stroke Indexed InsideFill InsideColorFill" data-item-index="4" data-renderer-id="0" transform="translate(520, 158)"><g id="tx_implemen_zog2sggp5oun-fill" stroke="none" fill="#FFFFFF"><g><text style="font: 20px &quot;Shantell Sans&quot;, cursive; white-space: pre;" font-weight="20px" font-size="&quot;Shantell" font-family="Sans', cursive"><tspan x="15.56" y="35" dominant-baseline="ideographic">Implementar </tspan><tspan x="21.31" y="59" dominant-baseline="ideographic">Proyecto de </tspan><tspan x="41.02" y="83" dominant-baseline="ideographic">Ejemplo</tspan></text></g></g></g><g id="g-root-tx_implemen_zog2sggp5oun-fill" data-item-order="1000000000" data-item-id="tx_implemen_zog2sggp5oun" data-item-class="Label Stroke Indexed InsideFill InsideColorFill" data-item-index="4" data-renderer-id="0" transform="translate(520, 158)"><g id="tx_implemen_zog2sggp5oun-fill" stroke="none" fill="#FFFFFF"><g><text style="font: 20px &quot;Shantell Sans&quot;, cursive; white-space: pre;" font-weight="20px" font-size="&quot;Shantell" font-family="Sans', cursive"><tspan x="15.56" y="35" dominant-baseline="ideographic">Implementar </tspan><tspan x="21.31" y="59" dominant-baseline="ideographic">Proyecto de </tspan><tspan x="41.02" y="83" dominant-baseline="ideographic">Ejemplo</tspan></text></g></g></g><g id="g-root-tx_reconoce_4hc8bkgp5q82-fill" data-item-order="1000000000" data-item-id="tx_reconoce_4hc8bkgp5q82" data-item-class="Label Stroke Indexed Indexed_1" data-item-index="1" data-renderer-id="0" transform="translate(16, 194)"><g id="tx_reconoce_4hc8bkgp5q82-fill" stroke="none" fill="#FFFFFF"><g><text style="font: 20px &quot;Shantell Sans&quot;, cursive; white-space: pre;" font-weight="20px" font-size="&quot;Shantell" font-family="Sans', cursive"><tspan x="12" y="35" dominant-baseline="ideographic">Reconocer la </tspan><tspan x="12" y="59" dominant-baseline="ideographic">necesidad de </tspan><tspan x="12" y="83" dominant-baseline="ideographic">recopilar </tspan><tspan x="12" y="107" dominant-baseline="ideographic">datos de </tspan><tspan x="12" y="131" dominant-baseline="ideographic">sitios web</tspan></text></g></g></g><g id="g-root-tx_aprender_deuntsgp5nnw-fill" data-item-order="1000000000" data-item-id="tx_aprender_deuntsgp5nnw" data-item-class="Label Stroke Indexed" data-item-index="2" data-renderer-id="0" transform="translate(184, 218)"><g id="tx_aprender_deuntsgp5nnw-fill" stroke="none" fill="#FFFFFF"><g><text style="font: 20px &quot;Shantell Sans&quot;, cursive; white-space: pre;" font-weight="20px" font-size="&quot;Shantell" font-family="Sans', cursive"><tspan x="12" y="35" dominant-baseline="ideographic">Aprender los </tspan><tspan x="12" y="59" dominant-baseline="ideographic">conceptos </tspan><tspan x="12" y="83" dominant-baseline="ideographic">básicos de las </tspan><tspan x="12" y="107" dominant-baseline="ideographic">técnicas de </tspan><tspan x="12" y="131" dominant-baseline="ideographic">web scraping</tspan></text></g></g></g><g id="g-root-tx_descubri_4kglr4gp5qmm-fill" data-item-order="1000000000" data-item-id="tx_descubri_4kglr4gp5qmm" data-item-class="Label Stroke Indexed" data-item-index="3" data-renderer-id="0" transform="translate(352, 242)"><g id="tx_descubri_4kglr4gp5qmm-fill" stroke="none" fill="#FFFFFF"><g><text style="font: 20px &quot;Shantell Sans&quot;, cursive; white-space: pre;" font-weight="20px" font-size="&quot;Shantell" font-family="Sans', cursive"><tspan x="12" y="35" dominant-baseline="ideographic">Descubrir </tspan><tspan x="12" y="59" dominant-baseline="ideographic">herramientas </tspan><tspan x="12" y="83" dominant-baseline="ideographic">comúnmente </tspan><tspan x="12" y="107" dominant-baseline="ideographic">utilizadas </tspan><tspan x="12" y="131" dominant-baseline="ideographic">para el web </tspan><tspan x="12" y="155" dominant-baseline="ideographic">scraping</tspan></text></g></g></g><g id="g-root-tx_descubri_4kglr4gp5qmm-fill" data-item-order="1000000000" data-item-id="tx_descubri_4kglr4gp5qmm" data-item-class="Label Stroke Indexed" data-item-index="3" data-renderer-id="0" transform="translate(352, 242)"><g id="tx_descubri_4kglr4gp5qmm-fill" stroke="none" fill="#FFFFFF"><g><text style="font: 20px &quot;Shantell Sans&quot;, cursive; white-space: pre;" font-weight="20px" font-size="&quot;Shantell" font-family="Sans', cursive"><tspan x="12" y="35" dominant-baseline="ideographic">Descubrir </tspan><tspan x="12" y="59" dominant-baseline="ideographic">herramientas </tspan><tspan x="12" y="83" dominant-baseline="ideographic">comúnmente </tspan><tspan x="12" y="107" dominant-baseline="ideographic">utilizadas </tspan><tspan x="12" y="131" dominant-baseline="ideographic">para el web </tspan><tspan x="12" y="155" dominant-baseline="ideographic">scraping</tspan></text></g></g></g><g id="g-root-tx_aplicarc_dhz19cgp5ou8-fill" data-item-order="1000000000" data-item-id="tx_aplicarc_dhz19cgp5ou8" data-item-class="Label Stroke Indexed" data-item-index="4" data-renderer-id="0" transform="translate(520, 266)"><g id="tx_aplicarc_dhz19cgp5ou8-fill" stroke="none" fill="#FFFFFF"><g><text style="font: 20px &quot;Shantell Sans&quot;, cursive; white-space: pre;" font-weight="20px" font-size="&quot;Shantell" font-family="Sans', cursive"><tspan x="12" y="35" dominant-baseline="ideographic">Aplicar </tspan><tspan x="12" y="59" dominant-baseline="ideographic">conocimientos </tspan><tspan x="12" y="83" dominant-baseline="ideographic">a través de un </tspan><tspan x="12" y="107" dominant-baseline="ideographic">proyecto </tspan><tspan x="12" y="131" dominant-baseline="ideographic">práctico de </tspan><tspan x="12" y="155" dominant-baseline="ideographic">scraping</tspan></text></g></g></g><g id="g-root-tx_aplicarc_dhz19cgp5ou8-fill" data-item-order="1000000000" data-item-id="tx_aplicarc_dhz19cgp5ou8" data-item-class="Label Stroke Indexed" data-item-index="4" data-renderer-id="0" transform="translate(520, 266)"><g id="tx_aplicarc_dhz19cgp5ou8-fill" stroke="none" fill="#FFFFFF"><g><text style="font: 20px &quot;Shantell Sans&quot;, cursive; white-space: pre;" font-weight="20px" font-size="&quot;Shantell" font-family="Sans', cursive"><tspan x="12" y="35" dominant-baseline="ideographic">Aplicar </tspan><tspan x="12" y="59" dominant-baseline="ideographic">conocimientos </tspan><tspan x="12" y="83" dominant-baseline="ideographic">a través de un </tspan><tspan x="12" y="107" dominant-baseline="ideographic">proyecto </tspan><tspan x="12" y="131" dominant-baseline="ideographic">práctico de </tspan><tspan x="12" y="155" dominant-baseline="ideographic">scraping</tspan></text></g></g></g><g id="g-root-1.cu_sy_18lc17kgp5q81-stroke" data-item-order="999871856" data-item-id="1.cu_sy_18lc17kgp5q81" data-item-class="Part Indexed Indexed_1 Fill Stroke" data-item-index="1" data-renderer-id="0" transform="translate(4, 74)"><g id="1.cu_sy_18lc17kgp5q81-stroke" fill="none" stroke-linecap="round" stroke-linejoin="round" stroke-miterlimit="4" stroke="#FFFFFF" stroke-width="4"><g><path d="M 10 10C 9.3 26.8 11 43.7 10 60.5C 9.1 75.6 8.3 90.9 10 106C 39 104.9 68.1 106.1 97.1 106C 124.1 105.9 151 106.9 178 106C 176.8 82 179.5 57.9 178 34C 194.5 27.1 211 19.7 226 10C 214 10 202 11.4 190.1 10C 179 8.7 167.8 9.9 156.7 10C 145.2 10.1 133.6 8.4 122.1 10C 109.8 11.7 97.2 10 84.7 10C 72.9 10 60.8 11.8 49.1 10C 36.2 8 23 10.7 10 10M 10 10L 10 106L 178 106L 178 34L 226 10L 10 10Z"></path></g></g></g><g id="g-root-1.cu_sy_18lc17kgp5q81-stroke" data-item-order="999871856" data-item-id="1.cu_sy_18lc17kgp5q81" data-item-class="Part Indexed Indexed_1 Fill Stroke" data-item-index="1" data-renderer-id="0" transform="translate(4, 74)"><g id="1.cu_sy_18lc17kgp5q81-stroke" fill="none" stroke-linecap="round" stroke-linejoin="round" stroke-miterlimit="4" stroke="#FFFFFF" stroke-width="4"><g><path d="M 10 10C 9.3 26.8 11 43.7 10 60.5C 9.1 75.6 8.3 90.9 10 106C 39 104.9 68.1 106.1 97.1 106C 124.1 105.9 151 106.9 178 106C 176.8 82 179.5 57.9 178 34C 194.5 27.1 211 19.7 226 10C 214 10 202 11.4 190.1 10C 179 8.7 167.8 9.9 156.7 10C 145.2 10.1 133.6 8.4 122.1 10C 109.8 11.7 97.2 10 84.7 10C 72.9 10 60.8 11.8 49.1 10C 36.2 8 23 10.7 10 10M 10 10L 10 106L 178 106L 178 34L 226 10L 10 10Z"></path></g></g></g><g id="g-root-2.cu_sy_meuzoggp5pfu-stroke" data-item-order="999871858" data-item-id="2.cu_sy_meuzoggp5pfu" data-item-class="Part Indexed Fill Stroke" data-item-index="2" data-renderer-id="0" transform="translate(172.00009155273438, 74)"><g id="2.cu_sy_meuzoggp5pfu-stroke" fill="none" stroke-linecap="round" stroke-linejoin="round" stroke-miterlimit="4" stroke="#FFFFFF" stroke-width="4"><g><path d="M 9.999908 34C 7.999908 51.1 11.499908 68.5 9.999908 85.6C 8.699908 100.3 8.799908 115.2 9.999908 130C 40.799908 128.6 71.599908 130 102.299908 130C 127.599908 130 152.799908 131.6 177.999908 130C 178.599908 106 178.799908 82 177.999908 58C 193.999908 49.9 210.899908 43.5 225.999908 34C 213.699908 35.2 201.299908 34.7 188.899908 34C 176.599908 33.3 164.199908 34.6 151.899908 34C 140.899908 33.5 129.899908 33.6 118.899908 34C 106.399908 34.5 93.799908 34.9 81.299908 34C 70.399908 33.2 59.499908 34.2 48.599908 34C 35.699908 33.8 22.699908 35.9 9.999908 34M 57.999908 34C 57.899908 26 57.099908 17.9 57.999908 10C 42.099908 18.3 26.799908 27.7 9.999908 34C 25.899908 32.5 41.999908 34.8 57.999908 34M 10 34L 10 130L 178 130L 178 58L 226 34L 10 34ZM 58 34L 58 10L 10 34L 58 34Z"></path></g></g></g><g id="g-root-2.cu_sy_meuzoggp5pfu-stroke" data-item-order="999871858" data-item-id="2.cu_sy_meuzoggp5pfu" data-item-class="Part Indexed Fill Stroke" data-item-index="2" data-renderer-id="0" transform="translate(172.00009155273438, 74)"><g id="2.cu_sy_meuzoggp5pfu-stroke" fill="none" stroke-linecap="round" stroke-linejoin="round" stroke-miterlimit="4" stroke="#FFFFFF" stroke-width="4"><g><path d="M 9.999908 34C 7.999908 51.1 11.499908 68.5 9.999908 85.6C 8.699908 100.3 8.799908 115.2 9.999908 130C 40.799908 128.6 71.599908 130 102.299908 130C 127.599908 130 152.799908 131.6 177.999908 130C 178.599908 106 178.799908 82 177.999908 58C 193.999908 49.9 210.899908 43.5 225.999908 34C 213.699908 35.2 201.299908 34.7 188.899908 34C 176.599908 33.3 164.199908 34.6 151.899908 34C 140.899908 33.5 129.899908 33.6 118.899908 34C 106.399908 34.5 93.799908 34.9 81.299908 34C 70.399908 33.2 59.499908 34.2 48.599908 34C 35.699908 33.8 22.699908 35.9 9.999908 34M 57.999908 34C 57.899908 26 57.099908 17.9 57.999908 10C 42.099908 18.3 26.799908 27.7 9.999908 34C 25.899908 32.5 41.999908 34.8 57.999908 34M 10 34L 10 130L 178 130L 178 58L 226 34L 10 34ZM 58 34L 58 10L 10 34L 58 34Z"></path></g></g></g><g id="g-root-3.cu_sy_1utoi00gp5p8r-stroke" data-item-order="999871860" data-item-id="3.cu_sy_1utoi00gp5p8r" data-item-class="Part Indexed Fill Stroke" data-item-index="3" data-renderer-id="0" transform="translate(340.0001220703125, 98)"><g id="3.cu_sy_1utoi00gp5p8r-stroke" fill="none" stroke-linecap="round" stroke-linejoin="round" stroke-miterlimit="4" stroke="#FFFFFF" stroke-width="4"><g><path d="M 9.999908 34C 9.999908 50.9 11.199908 67.9 9.999908 84.8C 8.999908 99.9 10.799908 115 9.999908 130C 28.599908 129.9 47.399908 132 65.899908 130C 84.999908 128 104.199908 128.5 123.299908 130C 141.499908 131.4 159.899908 128 177.999908 130C 179.599908 106.1 177.299908 82 177.999908 58C 193.099908 48.4 209.899908 41.8 225.999908 34C 215.199908 34.5 204.299908 34.4 193.499908 34C 182.099908 33.5 170.699908 33.3 159.399908 34C 146.599908 34.8 133.699908 34.3 120.899908 34C 107.599908 33.7 94.399908 34.5 81.099908 34C 68.799908 33.5 56.399908 33.9 44.099908 34C 32.699908 34.1 21.399908 34.4 9.999908 34M 57.999908 34C 57.799908 26 58.699908 18 57.999908 10C 42.099908 18.3 25.999908 25.9 9.999908 34C 25.999908 34.7 41.999908 33 57.999908 34M 10 34L 10 130L 178 130L 178 58L 226 34L 10 34ZM 58.000022 34L 58.000022 10L 10.000122 34L 58.000022 34Z"></path></g></g></g><g id="g-root-3.cu_sy_1utoi00gp5p8r-stroke" data-item-order="999871860" data-item-id="3.cu_sy_1utoi00gp5p8r" data-item-class="Part Indexed Fill Stroke" data-item-index="3" data-renderer-id="0" transform="translate(340.0001220703125, 98)"><g id="3.cu_sy_1utoi00gp5p8r-stroke" fill="none" stroke-linecap="round" stroke-linejoin="round" stroke-miterlimit="4" stroke="#FFFFFF" stroke-width="4"><g><path d="M 9.999908 34C 9.999908 50.9 11.199908 67.9 9.999908 84.8C 8.999908 99.9 10.799908 115 9.999908 130C 28.599908 129.9 47.399908 132 65.899908 130C 84.999908 128 104.199908 128.5 123.299908 130C 141.499908 131.4 159.899908 128 177.999908 130C 179.599908 106.1 177.299908 82 177.999908 58C 193.099908 48.4 209.899908 41.8 225.999908 34C 215.199908 34.5 204.299908 34.4 193.499908 34C 182.099908 33.5 170.699908 33.3 159.399908 34C 146.599908 34.8 133.699908 34.3 120.899908 34C 107.599908 33.7 94.399908 34.5 81.099908 34C 68.799908 33.5 56.399908 33.9 44.099908 34C 32.699908 34.1 21.399908 34.4 9.999908 34M 57.999908 34C 57.799908 26 58.699908 18 57.999908 10C 42.099908 18.3 25.999908 25.9 9.999908 34C 25.999908 34.7 41.999908 33 57.999908 34M 10 34L 10 130L 178 130L 178 58L 226 34L 10 34ZM 58.000022 34L 58.000022 10L 10.000122 34L 58.000022 34Z"></path></g></g></g><g id="g-root-4.cu_sy_1d30ylcgp5og4-stroke" data-item-order="999871862" data-item-id="4.cu_sy_1d30ylcgp5og4" data-item-class="Part Indexed Fill Stroke" data-item-index="4" data-renderer-id="0" transform="translate(508.0001220703125, 122)"><g id="4.cu_sy_1d30ylcgp5og4-stroke" fill="none" stroke-linecap="round" stroke-linejoin="round" stroke-miterlimit="4" stroke="#FFFFFF" stroke-width="4"><g><path d="M 9.999878 34C 11.199878 66 11.399878 98 9.999878 130C 36.799878 128.1 63.799878 129.1 90.699878 130C 115.799878 130.9 140.899878 129.6 165.999878 130C 165.799878 134.3 165.599878 138.7 165.999878 143C 174.799878 132.7 182.799878 121.8 191.099878 111.1C 198.699878 101.3 207.299878 92.4 213.999878 82C 207.299878 72.6 199.899878 63.7 192.399878 55C 183.199878 44.3 174.299878 33.4 165.999878 22C 165.099878 25.9 165.699878 30 165.999878 34C 141.499878 33.4 116.899878 33.8 92.399878 34C 64.899878 34.2 37.499878 33.2 9.999878 34M 57.999878 34C 56.599878 26.1 57.899878 18 57.999878 10C 42.799878 19.5 26.099878 26.2 9.999878 34C 25.999878 34.7 41.999878 35.1 57.999878 34M 10 34L 10 130L 166 130L 166 143L 214 82L 166 22L 166 34L 10 34ZM 57.9999 34L 57.9999 10L 10 34L 57.9999 34Z"></path></g></g></g><g id="g-root-4.cu_sy_1d30ylcgp5og4-stroke" data-item-order="999871862" data-item-id="4.cu_sy_1d30ylcgp5og4" data-item-class="Part Indexed Fill Stroke" data-item-index="4" data-renderer-id="0" transform="translate(508.0001220703125, 122)"><g id="4.cu_sy_1d30ylcgp5og4-stroke" fill="none" stroke-linecap="round" stroke-linejoin="round" stroke-miterlimit="4" stroke="#FFFFFF" stroke-width="4"><g><path d="M 9.999878 34C 11.199878 66 11.399878 98 9.999878 130C 36.799878 128.1 63.799878 129.1 90.699878 130C 115.799878 130.9 140.899878 129.6 165.999878 130C 165.799878 134.3 165.599878 138.7 165.999878 143C 174.799878 132.7 182.799878 121.8 191.099878 111.1C 198.699878 101.3 207.299878 92.4 213.999878 82C 207.299878 72.6 199.899878 63.7 192.399878 55C 183.199878 44.3 174.299878 33.4 165.999878 22C 165.099878 25.9 165.699878 30 165.999878 34C 141.499878 33.4 116.899878 33.8 92.399878 34C 64.899878 34.2 37.499878 33.2 9.999878 34M 57.999878 34C 56.599878 26.1 57.899878 18 57.999878 10C 42.799878 19.5 26.099878 26.2 9.999878 34C 25.999878 34.7 41.999878 35.1 57.999878 34M 10 34L 10 130L 166 130L 166 143L 214 82L 166 22L 166 34L 10 34ZM 57.9999 34L 57.9999 10L 10 34L 57.9999 34Z"></path></g></g></g><g id="g-root-tx_introduc_qwjx28gp4a9s-stroke" data-item-order="1000000000" data-item-id="tx_introduc_qwjx28gp4a9s" data-item-class="Label Stroke Title ColorFillGray ColorStrokeGray" data-item-index="none" data-renderer-id="0" transform="translate(148, 2)"></g><g id="g-root-tx_introduc_qwjx28gp4a9s-stroke" data-item-order="1000000000" data-item-id="tx_introduc_qwjx28gp4a9s" data-item-class="Label Stroke Title ColorFillGray ColorStrokeGray" data-item-index="none" data-renderer-id="0" transform="translate(148, 2)"></g><g id="g-root-tx_identifi_zjga3kgp5pft-stroke" data-item-order="1000000000" data-item-id="tx_identifi_zjga3kgp5pft" data-item-class="Label Stroke Indexed Indexed_1 InsideFill InsideColorFill" data-item-index="1" data-renderer-id="0" transform="translate(16, 86)"></g><g id="g-root-tx_entender_14157hcgp5nnv-stroke" data-item-order="1000000000" data-item-id="tx_entender_14157hcgp5nnv" data-item-class="Label Stroke Indexed InsideFill InsideColorFill" data-item-index="2" data-renderer-id="0" transform="translate(184, 122)"></g><g id="g-root-tx_explorar_1hduo0wgp5o91-stroke" data-item-order="1000000000" data-item-id="tx_explorar_1hduo0wgp5o91" data-item-class="Label Stroke Indexed InsideFill InsideColorFill" data-item-index="3" data-renderer-id="0" transform="translate(352, 134)"></g><g id="g-root-tx_explorar_1hduo0wgp5o91-stroke" data-item-order="1000000000" data-item-id="tx_explorar_1hduo0wgp5o91" data-item-class="Label Stroke Indexed InsideFill InsideColorFill" data-item-index="3" data-renderer-id="0" transform="translate(352, 134)"></g><g id="g-root-tx_implemen_zog2sggp5oun-stroke" data-item-order="1000000000" data-item-id="tx_implemen_zog2sggp5oun" data-item-class="Label Stroke Indexed InsideFill InsideColorFill" data-item-index="4" data-renderer-id="0" transform="translate(520, 158)"></g><g id="g-root-tx_implemen_zog2sggp5oun-stroke" data-item-order="1000000000" data-item-id="tx_implemen_zog2sggp5oun" data-item-class="Label Stroke Indexed InsideFill InsideColorFill" data-item-index="4" data-renderer-id="0" transform="translate(520, 158)"></g><g id="g-root-tx_reconoce_4hc8bkgp5q82-stroke" data-item-order="1000000000" data-item-id="tx_reconoce_4hc8bkgp5q82" data-item-class="Label Stroke Indexed Indexed_1" data-item-index="1" data-renderer-id="0" transform="translate(16, 194)"></g><g id="g-root-tx_aprender_deuntsgp5nnw-stroke" data-item-order="1000000000" data-item-id="tx_aprender_deuntsgp5nnw" data-item-class="Label Stroke Indexed" data-item-index="2" data-renderer-id="0" transform="translate(184, 218)"></g><g id="g-root-tx_descubri_4kglr4gp5qmm-stroke" data-item-order="1000000000" data-item-id="tx_descubri_4kglr4gp5qmm" data-item-class="Label Stroke Indexed" data-item-index="3" data-renderer-id="0" transform="translate(352, 242)"></g><g id="g-root-tx_descubri_4kglr4gp5qmm-stroke" data-item-order="1000000000" data-item-id="tx_descubri_4kglr4gp5qmm" data-item-class="Label Stroke Indexed" data-item-index="3" data-renderer-id="0" transform="translate(352, 242)"></g><g id="g-root-tx_aplicarc_dhz19cgp5ou8-stroke" data-item-order="1000000000" data-item-id="tx_aplicarc_dhz19cgp5ou8" data-item-class="Label Stroke Indexed" data-item-index="4" data-renderer-id="0" transform="translate(520, 266)"></g><g id="g-root-tx_aplicarc_dhz19cgp5ou8-stroke" data-item-order="1000000000" data-item-id="tx_aplicarc_dhz19cgp5ou8" data-item-class="Label Stroke Indexed" data-item-index="4" data-renderer-id="0" transform="translate(520, 266)"></g></g></g></svg>